<svg width="37" height="36" viewBox="0 0 37 36" fill="none" xmlns="http://www.w3.org/2000/svg">
<path d="M6.44263 7.57861H24.2785" stroke="#5E17EB" stroke-width="2.97264" stroke-linecap="round"/>
<path d="M6.44263 17.9829H15.3605" stroke="#5E17EB" stroke-width="2.97264" stroke-linecap="round"/>
<path d="M21.3058 17.9829H30.2237" stroke="#5E17EB" stroke-width="2.97264" stroke-linecap="round"/>
<path d="M12.3879 28.3872H30.2237" stroke="#5E17EB" stroke-width="2.97264" stroke-linecap="round"/>
<path d="M27.2511 10.5512C28.8928 10.5512 30.2237 9.22034 30.2237 7.5786C30.2237 5.93685 28.8928 4.60596 27.2511 4.60596C25.6093 4.60596 24.2784 5.93685 24.2784 7.5786C24.2784 9.22034 25.6093 10.5512 27.2511 10.5512Z" stroke="#5E17EB" stroke-width="2.97264" stroke-linecap="round"/>
<path d="M18.3332 20.9555C19.9749 20.9555 21.3058 19.6246 21.3058 17.9829C21.3058 16.3411 19.9749 15.0103 18.3332 15.0103C16.6914 15.0103 15.3605 16.3411 15.3605 17.9829C15.3605 19.6246 16.6914 20.9555 18.3332 20.9555Z" stroke="#5E17EB" stroke-width="2.97264" stroke-linecap="round"/>
<path d="M9.41527 31.3598C11.057 31.3598 12.3879 30.0289 12.3879 28.3872C12.3879 26.7454 11.057 25.4146 9.41527 25.4146C7.77352 25.4146 6.44263 26.7454 6.44263 28.3872C6.44263 30.0289 7.77352 31.3598 9.41527 31.3598Z" stroke="#5E17EB" stroke-width="2.97264" stroke-linecap="round"/>
</svg>
