<svg width="23" height="18" viewBox="0 0 23 18" fill="none" xmlns="http://www.w3.org/2000/svg">
<path d="M21.1764 0.740131H1.31071C1.09118 0.740131 0.880641 0.827339 0.72541 0.98257C0.570179 1.1378 0.482971 1.34834 0.482971 1.56787V15.6394C0.482971 16.0785 0.657387 16.4995 0.967848 16.81C1.27831 17.1205 1.69939 17.2949 2.13845 17.2949H20.3487C20.7877 17.2949 21.2088 17.1205 21.5193 16.81C21.8297 16.4995 22.0041 16.0785 22.0041 15.6394V1.56787C22.0041 1.34834 21.9169 1.1378 21.7617 0.98257C21.6065 0.827339 21.3959 0.740131 21.1764 0.740131ZM8.21197 9.0175L2.13845 14.584V3.45097L8.21197 9.0175ZM9.43288 10.1453L10.6848 11.2834C10.8374 11.423 11.0367 11.5005 11.2436 11.5005C11.4504 11.5005 11.6497 11.423 11.8023 11.2834L13.0542 10.1453L19.045 15.6394H3.44213L9.43288 10.1453ZM14.2751 9.0175L20.3487 3.45097V14.584L14.2751 9.0175Z" fill="#6E63ED"/>
</svg>
