<svg width="21" height="21" viewBox="0 0 21 21" fill="none" xmlns="http://www.w3.org/2000/svg">
<path d="M19.9696 14.1205L15.117 12.0512C14.8666 11.939 14.5917 11.8924 14.3184 11.916C14.045 11.9395 13.7821 12.0323 13.5546 12.1857L10.9576 13.9136C9.37482 13.1449 8.09331 11.8706 7.31556 10.2922L9.03312 7.66418C9.18546 7.43643 9.27851 7.17423 9.30381 6.90139C9.3291 6.62855 9.28585 6.35371 9.17797 6.10183L7.09828 1.24922C6.95316 0.921552 6.70744 0.64863 6.39675 0.470031C6.08606 0.291431 5.72656 0.21644 5.37038 0.255933C3.97315 0.438971 2.68993 1.12317 1.7593 2.18131C0.828663 3.23945 0.313943 4.59954 0.310837 6.00871C0.310837 14.224 6.99481 20.908 15.2101 20.908C16.6193 20.9049 17.9794 20.3902 19.0375 19.4595C20.0956 18.5289 20.7798 17.2457 20.9629 15.8484C21.0024 15.4923 20.9274 15.1327 20.7488 14.8221C20.5702 14.5114 20.2973 14.2657 19.9696 14.1205Z" fill="#6E63ED"/>
</svg>
