<svg width="19" height="24" viewBox="0 0 19 24" fill="none" xmlns="http://www.w3.org/2000/svg">
<path d="M16.6931 21.9591H11.5714C12.4352 21.1927 13.2475 20.37 14.0029 19.4966C16.8483 16.2374 18.3485 12.7919 18.3485 9.54304C18.3485 7.12822 17.3893 4.81229 15.6817 3.10476C13.9742 1.39722 11.6583 0.437931 9.24343 0.437931C6.82861 0.437931 4.51268 1.39722 2.80515 3.10476C1.09761 4.81229 0.138321 7.12822 0.138321 9.54304C0.138321 12.7919 1.63859 16.2374 4.48394 19.4966C5.23936 20.37 6.05162 21.1927 6.91542 21.9591H1.7938C1.57427 21.9591 1.36373 22.0463 1.2085 22.2015C1.05327 22.3568 0.966058 22.5673 0.966058 22.7868C0.966058 23.0064 1.05327 23.2169 1.2085 23.3721C1.36373 23.5274 1.57427 23.6146 1.7938 23.6146H16.6931C16.9126 23.6146 17.1231 23.5274 17.2784 23.3721C17.4336 23.2169 17.5208 23.0064 17.5208 22.7868C17.5208 22.5673 17.4336 22.3568 17.2784 22.2015C17.1231 22.0463 16.9126 21.9591 16.6931 21.9591ZM9.24343 6.23209C9.89827 6.23209 10.5384 6.42628 11.0829 6.79009C11.6274 7.1539 12.0518 7.671 12.3023 8.27599C12.5529 8.88099 12.6185 9.54671 12.4908 10.189C12.363 10.8312 12.0477 11.4212 11.5846 11.8842C11.1216 12.3473 10.5316 12.6626 9.88936 12.7904C9.2471 12.9181 8.58138 12.8526 7.97638 12.602C7.37139 12.3514 6.85429 11.927 6.49048 11.3825C6.12667 10.838 5.93248 10.1979 5.93248 9.54304C5.93248 8.66492 6.28131 7.82277 6.90224 7.20185C7.52316 6.58092 8.36531 6.23209 9.24343 6.23209Z" fill="#6E63ED"/>
</svg>
