<svg width="35" height="34" viewBox="0 0 35 34" fill="none" xmlns="http://www.w3.org/2000/svg">
<path d="M30 0.720703H5C2.23858 0.720703 0 2.95928 0 5.7207V28.7207C0 31.4821 2.23858 33.7207 5 33.7207H30C32.7614 33.7207 35 31.4821 35 28.7207V5.7207C35 2.95928 32.7614 0.720703 30 0.720703Z" fill="#5E17EB"/>
<path d="M26.2635 25.2654L10.7071 9.70906C10.5196 9.52152 10.2652 9.41617 10 9.41617C9.73478 9.41617 9.48043 9.52152 9.29289 9.70906C9.10536 9.8966 9 10.151 9 10.4162C9 10.6814 9.10536 10.9357 9.29289 11.1233L24.8492 26.6796C25.0368 26.8672 25.2911 26.9725 25.5563 26.9725C25.8216 26.9725 26.0759 26.8672 26.2635 26.6796C26.451 26.4921 26.5563 26.2377 26.5563 25.9725C26.5563 25.7073 26.451 25.4529 26.2635 25.2654Z" fill="#FDFCFF"/>
<path d="M11.1213 26.7091L26.6777 11.1527C26.8652 10.9652 26.9706 10.7108 26.9706 10.4456C26.9706 10.1804 26.8652 9.92603 26.6777 9.7385C26.4901 9.55096 26.2358 9.4456 25.9706 9.4456C25.7053 9.4456 25.451 9.55096 25.2635 9.7385L9.70711 25.2948C9.51957 25.4824 9.41421 25.7367 9.41421 26.002C9.41421 26.2672 9.51957 26.5215 9.70711 26.7091C9.89464 26.8966 10.149 27.002 10.4142 27.002C10.6794 27.002 10.9338 26.8966 11.1213 26.7091Z" fill="#FDFCFF"/>
</svg>
