<svg width="21" height="20" viewBox="0 0 21 20" fill="none" xmlns="http://www.w3.org/2000/svg">
<path d="M20.1247 9.8518C20.12 12.2045 19.2565 14.4745 17.6966 16.2356C16.1366 17.9968 13.9874 19.1279 11.6525 19.4166C11.6004 19.4217 11.5478 19.416 11.498 19.3998C11.4482 19.3836 11.4023 19.3573 11.3632 19.3225C11.3241 19.2878 11.2925 19.2453 11.2706 19.1977C11.2487 19.1502 11.2369 19.0986 11.2358 19.0462V12.074H13.4581C13.5594 12.0742 13.6596 12.0536 13.7527 12.0136C13.8457 11.9735 13.9295 11.9147 13.9989 11.841C14.0683 11.7672 14.1219 11.68 14.1563 11.5847C14.1907 11.4894 14.2051 11.3881 14.1988 11.287C14.1824 11.0954 14.094 10.9173 13.9514 10.7884C13.8087 10.6595 13.6225 10.5895 13.4303 10.5925H11.2358V8.37032C11.2358 7.97741 11.3919 7.60059 11.6698 7.32276C11.9476 7.04492 12.3244 6.88884 12.7173 6.88884H14.1988C14.3001 6.88904 14.4004 6.86846 14.4934 6.82837C14.5864 6.78828 14.6702 6.72954 14.7397 6.65578C14.8091 6.58201 14.8626 6.49479 14.897 6.39951C14.9314 6.30423 14.9459 6.2029 14.9396 6.1018C14.9232 5.91026 14.8347 5.73207 14.6921 5.60318C14.5495 5.4743 14.3632 5.40431 14.171 5.40736H12.7173C11.9315 5.40736 11.1779 5.71953 10.6222 6.27519C10.0665 6.83085 9.75436 7.58449 9.75436 8.37032V10.5925H7.53214C7.43085 10.5923 7.33058 10.6129 7.23756 10.653C7.14453 10.6931 7.06071 10.7518 6.99129 10.8256C6.92186 10.8994 6.8683 10.9866 6.83392 11.0819C6.79954 11.1772 6.78507 11.2785 6.7914 11.3796C6.80779 11.5711 6.89622 11.7493 7.03886 11.8782C7.18149 12.0071 7.3677 12.0771 7.55992 12.074H9.75436V19.0462C9.75463 19.0982 9.74397 19.1496 9.72308 19.1971C9.7022 19.2446 9.67155 19.2872 9.63314 19.3222C9.59472 19.3571 9.54939 19.3835 9.50009 19.3998C9.45079 19.4161 9.39861 19.4218 9.34696 19.4166C4.45807 18.824 0.68029 14.574 0.874735 9.49069C0.983886 6.9803 2.06997 4.61202 3.90116 2.89134C5.73234 1.17067 8.16357 0.233925 10.6759 0.281054C13.1882 0.328182 15.5826 1.35545 17.348 3.14359C19.1133 4.93173 20.1098 7.33909 20.1247 9.8518Z" fill="#FDFCFF"/>
</svg>
