<svg width="35" height="34" viewBox="0 0 35 34" fill="none" xmlns="http://www.w3.org/2000/svg">
<path d="M30 0.720703H5C2.23858 0.720703 0 2.95928 0 5.7207V28.7207C0 31.4821 2.23858 33.7207 5 33.7207H30C32.7614 33.7207 35 31.4821 35 28.7207V5.7207C35 2.95928 32.7614 0.720703 30 0.720703Z" fill="#5E17EB"/>
<path d="M29 15.7207H7C6.73478 15.7207 6.48043 15.8261 6.29289 16.0136C6.10536 16.2011 6 16.4555 6 16.7207C6 16.9859 6.10536 17.2403 6.29289 17.4278C6.48043 17.6153 6.73478 17.7207 7 17.7207H29C29.2652 17.7207 29.5196 17.6153 29.7071 17.4278C29.8946 17.2403 30 16.9859 30 16.7207C30 16.4555 29.8946 16.2011 29.7071 16.0136C29.5196 15.8261 29.2652 15.7207 29 15.7207Z" fill="#FDFCFF"/>
<path d="M7 9.7207H29C29.2652 9.7207 29.5196 9.61535 29.7071 9.42781C29.8946 9.24027 30 8.98592 30 8.7207C30 8.45549 29.8946 8.20113 29.7071 8.0136C29.5196 7.82606 29.2652 7.7207 29 7.7207H7C6.73478 7.7207 6.48043 7.82606 6.29289 8.0136C6.10536 8.20113 6 8.45549 6 8.7207C6 8.98592 6.10536 9.24027 6.29289 9.42781C6.48043 9.61535 6.73478 9.7207 7 9.7207Z" fill="#FDFCFF"/>
<path d="M29 23.7207H7C6.73478 23.7207 6.48043 23.8261 6.29289 24.0136C6.10536 24.2011 6 24.4555 6 24.7207C6 24.9859 6.10536 25.2403 6.29289 25.4278C6.48043 25.6153 6.73478 25.7207 7 25.7207H29C29.2652 25.7207 29.5196 25.6153 29.7071 25.4278C29.8946 25.2403 30 24.9859 30 24.7207C30 24.4555 29.8946 24.2011 29.7071 24.0136C29.5196 23.8261 29.2652 23.7207 29 23.7207Z" fill="#FDFCFF"/>
</svg>
