<svg width="20" height="20" viewBox="0 0 20 20" fill="none" xmlns="http://www.w3.org/2000/svg">
<path d="M14.2728 0.59259H6.12464C4.74944 0.59259 3.43057 1.13888 2.45816 2.1113C1.48575 3.08371 0.939453 4.40258 0.939453 5.77778V13.9259C0.939453 15.3011 1.48575 16.62 2.45816 17.5924C3.43057 18.5648 4.74944 19.1111 6.12464 19.1111H14.2728C15.648 19.1111 16.9669 18.5648 17.9393 17.5924C18.9117 16.62 19.458 15.3011 19.458 13.9259V5.77778C19.458 4.40258 18.9117 3.08371 17.9393 2.1113C16.9669 1.13888 15.648 0.59259 14.2728 0.59259ZM10.1987 14.2963C9.31968 14.2963 8.4604 14.0356 7.72951 13.5473C6.99863 13.0589 6.42897 12.3648 6.09258 11.5527C5.75619 10.7405 5.66818 9.84692 5.83967 8.98478C6.01116 8.12264 6.43445 7.33072 7.05602 6.70915C7.67758 6.08759 8.46951 5.66429 9.33164 5.4928C10.1938 5.32131 11.0874 5.40933 11.8995 5.74572C12.7116 6.08211 13.4058 6.65176 13.8941 7.38265C14.3825 8.11353 14.6432 8.97282 14.6432 9.85185C14.6432 11.0306 14.1749 12.1611 13.3414 12.9945C12.5079 13.828 11.3775 14.2963 10.1987 14.2963ZM15.0135 6.14815C14.7938 6.14815 14.5789 6.08298 14.3962 5.96089C14.2135 5.8388 14.0711 5.66527 13.987 5.46224C13.9029 5.25921 13.8809 5.0358 13.9238 4.82027C13.9666 4.60473 14.0725 4.40675 14.2279 4.25136C14.3832 4.09597 14.5812 3.99015 14.7968 3.94727C15.0123 3.9044 15.2357 3.9264 15.4387 4.0105C15.6418 4.0946 15.8153 4.23701 15.9374 4.41973C16.0595 4.60246 16.1246 4.81728 16.1246 5.03703C16.1246 5.33172 16.0076 5.61434 15.7992 5.82271C15.5908 6.03108 15.3082 6.14815 15.0135 6.14815Z" fill="#FDFCFF"/>
</svg>
