<svg width="20" height="20" viewBox="0 0 20 20" fill="none" xmlns="http://www.w3.org/2000/svg">
<path d="M17.6802 0.59259H2.12467C1.73176 0.59259 1.35494 0.748674 1.0771 1.02651C0.799273 1.30434 0.643188 1.68116 0.643188 2.07407V17.6296C0.643188 18.0225 0.799273 18.3994 1.0771 18.6772C1.35494 18.955 1.73176 19.1111 2.12467 19.1111H17.6802C18.0731 19.1111 18.45 18.955 18.7278 18.6772C19.0056 18.3994 19.1617 18.0225 19.1617 17.6296V2.07407C19.1617 1.68116 19.0056 1.30434 18.7278 1.02651C18.45 0.748674 18.0731 0.59259 17.6802 0.59259ZM6.93948 14.2963C6.93948 14.4928 6.86144 14.6812 6.72253 14.8201C6.58361 14.959 6.3952 15.037 6.19874 15.037C6.00229 15.037 5.81388 14.959 5.67496 14.8201C5.53605 14.6812 5.458 14.4928 5.458 14.2963V8.37037C5.458 8.17391 5.53605 7.9855 5.67496 7.84659C5.81388 7.70767 6.00229 7.62963 6.19874 7.62963C6.3952 7.62963 6.58361 7.70767 6.72253 7.84659C6.86144 7.9855 6.93948 8.17391 6.93948 8.37037V14.2963ZM6.19874 6.51852C5.97899 6.51852 5.76417 6.45335 5.58144 6.33126C5.39872 6.20917 5.25631 6.03564 5.17221 5.83261C5.08811 5.62958 5.06611 5.40617 5.10898 5.19064C5.15185 4.9751 5.25768 4.77712 5.41307 4.62173C5.56846 4.46634 5.76644 4.36052 5.98198 4.31764C6.19751 4.27477 6.42092 4.29677 6.62395 4.38087C6.82698 4.46497 7.00051 4.60738 7.1226 4.7901C7.24469 4.97283 7.30985 5.18765 7.30985 5.4074C7.30985 5.70209 7.19279 5.98471 6.98442 6.19308C6.77604 6.40145 6.49343 6.51852 6.19874 6.51852ZM15.0876 14.2963C15.0876 14.4928 15.0096 14.6812 14.8707 14.8201C14.7318 14.959 14.5433 15.037 14.3469 15.037C14.1504 15.037 13.962 14.959 13.8231 14.8201C13.6842 14.6812 13.6062 14.4928 13.6062 14.2963V10.963C13.6062 10.4718 13.411 10.0008 13.0638 9.6535C12.7165 9.30621 12.2454 9.11111 11.7543 9.11111C11.2632 9.11111 10.7921 9.30621 10.4448 9.6535C10.0976 10.0008 9.90245 10.4718 9.90245 10.963V14.2963C9.90245 14.4928 9.8244 14.6812 9.68549 14.8201C9.54657 14.959 9.35816 15.037 9.16171 15.037C8.96525 15.037 8.77684 14.959 8.63792 14.8201C8.49901 14.6812 8.42097 14.4928 8.42097 14.2963V8.37037C8.42045 8.18807 8.48718 8.01199 8.60838 7.87581C8.72958 7.73964 8.89673 7.65294 9.07786 7.6323C9.25898 7.61167 9.44136 7.65855 9.59008 7.76397C9.7388 7.8694 9.84342 8.02596 9.88393 8.2037C10.3851 7.86393 10.9695 7.66711 11.5741 7.63438C12.1787 7.60164 12.7809 7.73423 13.3159 8.0179C13.8508 8.30157 14.2984 8.7256 14.6106 9.24447C14.9227 9.76334 15.0877 10.3574 15.0876 10.963V14.2963Z" fill="#FDFCFF"/>
</svg>
