<svg width="21" height="19" viewBox="0 0 21 19" fill="none" xmlns="http://www.w3.org/2000/svg">
<path d="M20.6895 4.19456L17.8932 6.9816C17.3377 13.4538 11.8747 18.4816 5.34691 18.4816C4.00432 18.4816 2.89321 18.2686 2.05062 17.852C1.37469 17.5094 1.09691 17.1483 1.02284 17.0372C0.961551 16.9441 0.922059 16.8384 0.907305 16.7279C0.89255 16.6174 0.902914 16.505 0.937623 16.3991C0.972333 16.2932 1.03049 16.1965 1.10777 16.1162C1.18505 16.0359 1.27945 15.9741 1.38395 15.9353C1.40247 15.926 3.58765 15.0927 5.00432 13.4909C4.12575 12.8653 3.35354 12.1025 2.71728 11.2316C1.44876 9.50938 0.106172 6.51864 0.911727 2.05567C0.937051 1.92299 0.997736 1.79962 1.08737 1.69857C1.17701 1.59752 1.29227 1.52256 1.42099 1.4816C1.55011 1.43932 1.68838 1.43337 1.82066 1.4644C1.95293 1.49543 2.07413 1.56224 2.17099 1.65753C2.19876 1.69456 5.2821 4.7316 9.05062 5.71308V5.14827C9.05425 4.56096 9.17354 3.98013 9.40165 3.43892C9.62977 2.89772 9.96225 2.40675 10.3801 1.99404C10.798 1.58133 11.293 1.25497 11.837 1.0336C12.381 0.81222 12.9633 0.700163 13.5506 0.703822C14.3214 0.714816 15.0763 0.925287 15.7416 1.31473C16.4069 1.70417 16.9599 2.25931 17.3469 2.92604H20.1617C20.308 2.92559 20.4511 2.96843 20.573 3.04917C20.6949 3.12991 20.7902 3.24493 20.8469 3.37975C20.9003 3.51657 20.9138 3.66571 20.886 3.8099C20.8581 3.9541 20.79 4.08746 20.6895 4.19456Z" fill="#FDFCFF"/>
</svg>
